<svg width="145" height="113" viewBox="0 0 145 113" fill="none" xmlns="http://www.w3.org/2000/svg">
<path d="M0.188 17.324C0.188 24.596 6.344 26.36 16.676 26.36C26 26.36 32.372 24.992 32.372 18.26C32.372 11.888 26.216 11.348 16.28 10.808C8.936 10.376 7.424 10.016 7.424 8.072C7.424 6.2 8.936 5.588 15.308 5.588C22.04 5.588 24.812 6.272 24.812 9.044H31.292C31.292 2.816 25.532 0.439999 16.028 0.439999C6.596 0.439999 0.944 2.204 0.944 7.748C0.944 13.4 5.3 15.128 16.28 15.632C24.452 16.028 25.892 16.388 25.892 18.476C25.892 20.456 23.84 21.212 17.036 21.212C8.828 21.212 6.668 19.988 6.668 17.324H0.188ZM78.8117 26H85.9757L72.9437 0.799998H64.1957L51.1997 26H58.3277L61.0277 20.636H76.1117L78.8117 26ZM63.4397 15.812L68.5877 5.588L73.6997 15.812H63.4397ZM143.765 0.799998H135.017L124.469 18.584L113.921 0.799998H105.173V26H111.653V8.72L122.129 26H126.809L137.285 8.72V26H143.765V0.799998ZM27.692 43.8L17.576 64.212L7.46 43.8H0.188L13.148 69H22.004L34.964 43.8H27.692ZM81.4133 69H88.5773L75.5453 43.8H66.7973L53.8013 69H60.9293L63.6293 63.636H78.7133L81.4133 69ZM66.0413 58.812L71.1893 48.588L76.3013 58.812H66.0413ZM137.223 53.052C137.223 47.436 133.299 43.8 127.575 43.8H107.775V69H114.255V62.268H124.695L128.763 69H136.395L131.751 61.512C135.135 60.18 137.223 57.156 137.223 53.052ZM114.255 49.236H125.775C127.719 49.236 130.743 49.236 130.743 53.052C130.743 56.832 127.719 56.832 125.775 56.832H114.255V49.236ZM0.188 99.364C0.188 107.752 4.94 112.36 16.028 112.36C26.072 112.36 31.112 108.508 31.76 101.2H25.172C24.56 105.304 21.392 106.924 16.028 106.924C9.476 106.924 6.668 104.548 6.668 99.364C6.668 94.216 9.44 91.876 16.028 91.876C21.428 91.876 24.56 93.46 25.172 97.528H31.76C31.112 90.256 26.072 86.44 16.028 86.44C4.94 86.44 0.188 91.012 0.188 99.364ZM73.8952 86.8H67.4152V112H73.8952V86.8ZM137.136 112H144.3L131.268 86.8H122.52L109.524 112H116.652L119.352 106.636H134.436L137.136 112ZM121.764 101.812L126.912 91.588L132.024 101.812H121.764Z" fill="white"/>
</svg>
