<?xml version="1.0" encoding="UTF-8"?>
<svg id="Layer_2" data-name="Layer 2" xmlns="http://www.w3.org/2000/svg" viewBox="0 0 575.74 448.18">
  <defs>
    <style>
      .cls-1 {
        fill: #fb3434;
      }

      .cls-1, .cls-2, .cls-3, .cls-4, .cls-5, .cls-6, .cls-7, .cls-8, .cls-9, .cls-10, .cls-11, .cls-12, .cls-13, .cls-14, .cls-15, .cls-16, .cls-17, .cls-18, .cls-19, .cls-20, .cls-21, .cls-22, .cls-23, .cls-24, .cls-25, .cls-26, .cls-27, .cls-28, .cls-29, .cls-30, .cls-31, .cls-32, .cls-33, .cls-34, .cls-35, .cls-36, .cls-37, .cls-38, .cls-39, .cls-40, .cls-41, .cls-42, .cls-43, .cls-44, .cls-45, .cls-46, .cls-47, .cls-48, .cls-49, .cls-50, .cls-51 {
        stroke-width: 0px;
      }

      .cls-2 {
        fill: #f73f3f;
      }

      .cls-3 {
        fill: #fefefe;
      }

      .cls-4 {
        fill: #f58a8a;
      }

      .cls-5 {
        fill: #fa8282;
      }

      .cls-6 {
        fill: #f33c3c;
      }

      .cls-7 {
        fill: #f68080;
      }

      .cls-8 {
        fill: #ec5353;
      }

      .cls-9 {
        fill: #ed6262;
      }

      .cls-10 {
        fill: #f66363;
      }

      .cls-11 {
        fill: #d85353;
      }

      .cls-12 {
        fill: #faeded;
      }

      .cls-13 {
        fill: #f77f7f;
      }

      .cls-14 {
        fill: #f61e1e;
      }

      .cls-15 {
        fill: #f78181;
      }

      .cls-16 {
        fill: #fe5656;
      }

      .cls-17 {
        fill: #f75050;
      }

      .cls-18 {
        fill: #f77e7e;
      }

      .cls-19 {
        fill: #f08a8a;
      }

      .cls-20 {
        fill: #eb4b4b;
      }

      .cls-21 {
        fill: #f87d7d;
      }

      .cls-22 {
        fill: #ea6c6c;
      }

      .cls-23 {
        fill: #f27575;
      }

      .cls-24 {
        fill: #ef8484;
      }

      .cls-25 {
        fill: #ed8686;
      }

      .cls-26 {
        fill: #f44242;
      }

      .cls-27 {
        fill: #f97979;
      }

      .cls-28 {
        fill: #fc7f7f;
      }

      .cls-29 {
        fill: #f77d7d;
      }

      .cls-30 {
        fill: #fe0000;
      }

      .cls-31 {
        fill: #f78686;
      }

      .cls-32 {
        fill: #f68585;
      }

      .cls-33 {
        fill: #f56262;
      }

      .cls-34 {
        fill: #f83030;
      }

      .cls-35 {
        fill: #fb7777;
      }

      .cls-36 {
        fill: #f68181;
      }

      .cls-37 {
        fill: #fa2727;
      }

      .cls-38 {
        fill: #fe6767;
      }

      .cls-39 {
        fill: #ee7c7c;
      }

      .cls-40 {
        fill: #ec6262;
      }

      .cls-41 {
        fill: #ee5353;
      }

      .cls-42 {
        fill: #fe4141;
      }

      .cls-43 {
        fill: #ed5d5d;
      }

      .cls-44 {
        fill: #f78080;
      }

      .cls-45 {
        fill: #f87a7a;
      }

      .cls-46 {
        fill: #e49393;
      }

      .cls-47 {
        fill: #f68484;
      }

      .cls-48 {
        fill: #f67474;
      }

      .cls-49 {
        fill: #ea5c5c;
      }

      .cls-50 {
        fill: #f58282;
      }

      .cls-51 {
        fill: #fd1818;
      }
    </style>
  </defs>
  <g id="Layer_1-2" data-name="Layer 1">
    <g>
      <path class="cls-41" d="m564.57,361.41c-10.72,2.3-21.43,4.64-32.16,6.89-25.08,5.26-50.16,10.48-75.25,15.71-39.1,8.15-78.19,16.29-117.29,24.45-26.31,5.49-52.61,11.03-78.91,16.53-33.39,6.98-66.79,13.93-100.19,20.88-1.87.39-3.68,1.11-5.63,1.03-1.34-2.35-.99-4.93-.99-7.45,0-144.49,0-288.97,0-433.46,0-1.08-.13-2.19.07-3.24.27-1.37,1.02-2.08,2.47-1.23-.84,2.23-.78,4.55-.78,6.88,0,143.55,0,287.09,0,430.64,0,6.36.13,5.4,5.22,4.37,26.94-5.46,53.83-11.18,80.76-16.72,23.99-4.94,47.97-9.9,71.95-14.88,24.63-5.12,49.26-10.22,73.89-15.36,21.12-4.4,42.27-8.67,63.38-13.09,33.51-7.02,67.05-13.87,100.56-20.91,3.1-.65,6.19-1.32,9.3-1.9,1.14-.21,2.29-.56,3.42.06.29.21.35.48.18.8Z"/>
      <path class="cls-6" d="m156.63,1.98c-1.05-.98-1.65-.37-1.92.66-.18.71-.08,1.49-.08,2.24,0,145.85,0,291.7.01,437.56,0,1.46-.64,3.42,2,3.49-.32.68-1.31.23-1.5.98-1.04.4-1.61.1-1.61-1.07,0-1.25.01-2.5.01-3.75,0-145.83,0-291.66,0-437.49,0-.67.08-1.34-.01-2-.33-2.27.81-2.43,2.62-2.03,6.82,1.49,13.66,2.89,20.49,4.35,6.16,1.32,12.32,2.67,18.48,4.01-.11,1.31-1.21.99-1.99,1.2-3.78-.04-7.37-1.23-11.04-1.96-7.43-1.47-14.82-3.12-22.25-4.62-1.19-.24-2.54-.27-3.24-1.56Z"/>
      <path class="cls-16" d="m564.57,361.41c0-.22,0-.43,0-.65.26-1.15,1.3-1.18,2.14-1.41,1.36-.38,2.77-.59,4.15-.88,3.31-.69,3.44-.82,3.44-4.31,0-86.81,0-173.62,0-260.43,0-3.48-.2-3.72-3.66-4.45-28.46-5.94-56.92-11.87-85.39-17.79-31.97-6.65-63.93-13.35-95.9-19.99-.97-.2-2-.28-2.73-1.09.02-1.62,1.51-.25,1.98-.97,10.73,2.21,21.48,4.39,32.2,6.64,25.54,5.35,51.07,10.76,76.61,16.11,25.21,5.28,50.42,10.57,75.65,15.72,2.46.5,2.68,1.67,2.68,3.75-.04,85.05-.04,170.11-.04,255.16,0,3.5-.06,7,.03,10.5.04,1.44-.4,2.06-1.87,2.31-3.11.53-6.14,1.5-9.3,1.78Z"/>
      <path class="cls-42" d="m388.59,49.44c-.56.73-1.4.33-2.09.53-.81.7-1.73.43-2.61.25-20.38-4.23-40.74-8.49-61.12-12.73-15.57-3.24-31.14-6.47-46.7-9.73-24.6-5.16-49.24-10.15-73.82-15.43-2.28-.49-4.61-.71-6.85-1.37-.91-.27-2.05-.26-2.4-1.47.72-.17,1.58.18,2.14-.57,3.08.47,6.15.98,9.13,1.95,1.53.81,3.21.9,4.89,1,1.59.13,3.14.41,4.64.99,1.7.75,3.46,1.19,5.32,1.11,7.8,1.61,15.61,3.2,23.4,4.82,23.5,4.89,47,9.79,70.5,14.71,24.8,5.19,49.58,10.4,74.38,15.61.41.09.8.23,1.2.34Z"/>
      <path class="cls-6" d="m219.12,13.96c-2.09.85-3.96-.39-5.92-.7-.14-.02.36-.3.6-.42,1.84.04,3.58.58,5.33,1.11Z"/>
      <path class="cls-6" d="m209.16,11.86c-1.93.93-3.65-.35-5.46-.59-.14-.02.33-.31.57-.41,1.69.06,3.31.42,4.89,1Z"/>
      <path class="cls-30" d="m312.6,104.42c1.84,7.17,2.43,14.41,1.06,21.74-3.04,16.29-12.11,27.94-27.12,34.85-11.78,5.42-24.07,5.72-36.58,3.08-1.46-.31-2.75-1.22-4.3-1.22-17.89-5.88-31.32-17.15-39.79-33.92-5.87-11.62-7.54-24.07-4.24-36.76,3.8-14.61,12.87-24.9,26.73-31.09,6.89-3.08,14.14-4.38,21.5-4.55,7.38-.17,14.67,1.16,21.6,3.95.31.13.64.18.97.21,1.8.55,3.42,1.55,5.17,2.22h.04c1.69.96,3.46,1.75,5.06,2.85,6.41,3.79,12.1,8.45,16.91,14.15.16.17.32.35.48.52,5.98,7.05,10.13,15.05,12.51,23.98Z"/>
      <path class="cls-30" d="m343.07,160.93c-14.52-12.73-21.32-28.76-19.37-47.96,1.72-16.89,12.11-31.07,29.5-35.76,11.02-2.97,21.78-1.17,31.56,4.48,17.43,10.07,26.78,25.48,28,45.54.74,12.29-2.89,23.33-11.15,32.67-4.85,5.18-10.68,8.73-17.47,10.87-7.3,2.31-14.56,1.83-21.87.3-.98-.21-1.83-.8-2.83-.93-5.93-2.22-11.48-5.12-16.36-9.21Z"/>
      <path class="cls-30" d="m492.16,137.68c-.27,12.6-3.45,23.01-11.83,31.33-10.33,10.26-25.09,11.23-37.21,4.02-12.67-7.54-19.51-19.18-22.24-33.38-1.8-9.36-1.15-18.61,2.58-27.44,9.01-21.36,31.31-27.08,48.85-14.12,13.58,10.03,19.24,24.17,19.84,39.6Z"/>
      <path class="cls-30" d="m497.96,139.25c.06-9.11,2.14-17.58,7.61-25.09,8.7-11.95,23.99-13.91,35.5-4.44,17.3,14.23,21.41,42.89,8.81,61.45-8.08,11.9-23.46,14.29-35.04,5.38-9.41-7.24-14.13-17.18-16.22-28.59-.52-2.87-.78-5.77-.66-8.71Z"/>
      <path class="cls-5" d="m296.1,384.39c-6.02,1.53-12.2,2.25-18.3,3.35-13.97,2.52-27.97,4.86-41.95,7.27-11.12,1.92-22.24,3.85-33.37,5.73-.87.15-2.08.71-2.38-.88.14-.14.3-.27.47-.38.74-.57.58-2.06,2-1.95,5.21-.66,10.37-1.56,15.53-2.45,12.38-2.15,24.78-4.19,37.16-6.37,3.32-.58,3.59-.85,3.59-4.18.01-32.21.02-64.42,0-96.63,0-3.21-.4-3.5-3.73-3.11-.29.1-.59.16-.9.21-10.07.04-20.08,1.28-30.14,1.68-6.21.25-12.46.53-18.65,1.33-1.16.15-2.32.19-3.49.07-1-1.34-1.28-2.66.07-3.96,10.31-.17,20.58-1.05,30.86-1.62,7.8-.43,15.6-.88,23.39-1.42,1.77-.12,2.59-.83,2.55-2.59-.02-.83.02-1.66.02-2.5,0-31.28,0-62.56.01-93.84,0-1.84-.15-3.65-.34-5.47.2-.61.68-.62,1.2-.57.52.18.8.57.96,1.07.21.82.18,1.65.18,2.48,0,33.86.03,67.71,0,101.57-.1,2.49.56,4.91.55,7.42-.07,32.39-.04,64.77-.04,97.16,0,.79-.32,1.67.37,2.36,1.6.2,3.02-.37,4.43-.98,6.85-1.58,13.75-2.87,20.76-3.55,2.87.29,5.56-.66,8.32-1.15.26-.09.52-.14.78-.19,3.73-.29,7.37-1.12,11.02-1.89,1.16-.22,2.34-.3,3.5-.57.66-.09,1.31-.09,1.92.24.86,1.09-.5,1.16-.79,1.72-.45.03-.9.07-1.36.1-1.9.26-3.8.52-5.67.97-.86.7-1.87.57-2.86.52-1.89.31-3.79.51-5.64.99Z"/>
      <path class="cls-13" d="m412.69,363.94c-3.47,1.51-7.25,1.65-10.9,2.3-16.95,3.03-33.92,5.95-50.88,8.88-8.53,1.47-17.07,2.84-25.59,4.37-1.79.32-2.29-.28-2.21-1.88.02-.5,0-1,0-1.5,0-64.9,0-129.79.03-194.69,0-.97-.62-2.2.68-2.91.34.13.5.38.5.75,0,64.77,0,129.54.04,194.31,0,1.03-.69,2.37.76,3.09,9-1.18,17.88-3.04,26.84-4.45,4.6-.72,9.19-1.54,13.77-2.4,2.96-.56,3.09-.63,3.09-3.71.02-13.9,0-27.79,0-41.69,0-14.48-.01-28.96.02-43.43,0-1.38-.31-2.86.81-4.03,1.18.15,1.04,1.11,1.12,1.89.1.99.04,2,.04,2.99,0,27.96,0,55.92.02,83.88,0,1.01-.5,2.18.58,2.99,6.83-.56,13.48-2.17,20.22-3.26,6-.97,12.03-1.8,17.97-3.14.73-.17,1.47-.28,2.23-.14.86.33.69,1.14.85,1.79Z"/>
      <path class="cls-33" d="m311.63,381.81c-.07-.78.72-.93,1.04-1.43.17-1.57.25-3.14.24-4.72,0-30.28,0-60.56-.01-90.84,0-1.23.22-2.51-.54-3.63-.19-.26-.35-.53-.5-.81-.11-.22-.36-.51-.22-.69,1.85-2.32,1.25-5.05,1.25-7.64.03-29.31.02-58.63,0-87.94,0-1.15.2-2.34-.3-3.45-.23-.37-.49-.72-.74-1.07-.31-.53-.56-1.15.16-1.46,1-.42,1.95-.3,2.57.76.03.75.08,1.49.08,2.24,0,65.58,0,131.16.04,196.74,0,2.32-.32,3.98-3.08,3.94Z"/>
      <path class="cls-22" d="m412.69,363.94c-.67-.4-.57-1.1-.68-1.71-1.03-1.31-.72-2.86-.72-4.33-.01-27.46-.03-54.91-.02-82.37,0-1.4.1-2.81.03-4.22-.03-28.73-.04-57.45-.01-86.17.24-.89-.32-2.57,1.69-1.74.06,1.08.17,2.15.17,3.23,0,57.9.01,115.79-.01,173.69,0,1.21.39,2.51-.46,3.62Z"/>
      <path class="cls-40" d="m421.09,362.85c-.76.12-1.07-.26-1.1-.96-.02-.58-.03-1.16-.03-1.75,0-58.09,0-116.18,0-174.26,0-.66.05-1.33.08-1.99,1.32-.96,2.69-.5,4.05-.12.16.23.17.48.04.73-.65.68-2.13.3-2.18,1.73-.11,15.64,0,31.26-.04,46.89-.03,12.72.05,25.43-.03,38.15-.03,1.11.06,2.22.02,3.33,0,26.96,0,53.93,0,80.89,0,1.58.04,3.16-.04,4.74-.06.47-.08.94-.15,1.41-.07.47-.31.87-.62,1.22Z"/>
      <path class="cls-36" d="m314.59,178.89c-.87-.38-1.78-1.2-2.46.25-.53,1.08-1.52.82-2.4.79-9.39-.33-18.78-.91-28.17-1.33-6.31-.28-12.63-.55-18.93-1.05-.29-.05-.57-.14-.84-.27-.81-.51-1.33-1.54-2.52-1.37-5.89.37-11.75-.28-17.61-.69-2.97-.21-5.97-.37-8.93-.45-5.72-.16-11.43-.6-17.15-.75-4.37-.12-8.78-.15-13.12-.88-.55-.02-1.1-.01-1.65.04-.27,0-.52-.11-.72-.29.17-1.4,1.25-1.1,2.11-1.08,13.22.23,26.4,1.24,39.59,1.96,6.89.37,13.78.74,20.67,1.08,15.28.73,30.56,1.43,45.84,2.16,1.49.07,2.98.27,4.47.37,1,.06,1.84.26,1.82,1.52Z"/>
      <path class="cls-19" d="m272.4,61c-5.17-1.87-10.52-2.96-15.97-3.64-8.84-1.1-17.42.07-25.69,3.19-9.33,3.52-16.92,9.4-22.49,17.72-4.56,6.81-7.14,14.41-7.58,22.55-.92,16.8,4.95,31.13,16.37,43.38,7.45,7.99,16.16,13.91,26.51,17.42.76.26,1.41.83,2.11,1.25-2.22.31-4.02-.97-5.87-1.75-12.84-5.46-23.15-13.96-30.78-25.73-4.33-6.67-7.51-13.88-8.62-21.62-1.2-8.41-1.06-16.85,1.9-25.24,5.11-14.5,14.96-23.92,29.05-29.09,11.17-4.1,22.64-4.42,34.16-1.19,2.63.74,5.39,1.04,7.73,2.62-.24.26-.52.3-.83.13Z"/>
      <path class="cls-39" d="m421.09,362.85c.02-.33.04-.66.06-1,1.26-1.34,3.03-1.32,4.63-1.57,9.26-1.45,18.48-3.1,27.72-4.66,3.11-.53,3.38-.88,3.38-3.82,0-26.86.04-53.72-.02-80.58.05-27.02,0-54.04.02-81.05,0-1.08-.13-2.18.15-3.23.21-.78.5-1.77,1.65-.81.24,1.24.1,2.48.1,3.73,0,25.18,0,50.36.02,75.54,0,1.15-.21,2.33.35,3.42.62,1.03,1.65.79,2.59.89.88.1,2.02-.25,2.29,1.12-.67.78-1.6.67-2.49.71-.89.04-1.82-.1-2.4.82-.53.94-.35,1.96-.35,2.95,0,25.15,0,50.31,0,75.46,0,3.86.16,4.05,3.98,3.28,4.97-1,10-1.64,14.96-2.68,1.18-.25,2.68-.79,3.36.99-6.41,1.18-12.82,2.4-19.24,3.53-10.25,1.8-20.51,3.55-30.76,5.31-3.33.57-6.67,1.09-10,1.63Z"/>
      <path class="cls-32" d="m557.15,338.96c-3.57,1.48-7.41,1.67-11.14,2.33-15.22,2.71-30.47,5.29-45.71,7.9-.75.13-1.62.69-2.22-.32.53-.46-.05-1.39.74-1.74,9.81-1.61,19.61-3.26,29.37-5.1.49-1.04.16-2.13.16-3.18.02-22.73,0-45.45.05-68.18,0-1.29-.62-2.89,1.03-3.79,1.32,1.18.91,2.78.91,4.22.03,21.71.03,43.43.02,65.14,0,6.17-.06,5.44,5.48,4.52,6.64-1.11,13.25-2.43,19.94-3.3.68.05,1.14.36,1.29,1.06.03.15.06.29.09.44Z"/>
      <path class="cls-31" d="m481.09,352.37c-.83-.86-1.9-.58-2.83-.42-5.94,1.02-11.88,2.09-17.79,3.23-1.64.32-2.4-.14-2.38-1.82,0-.5,0-1,0-1.5,0-25.89,0-51.78.02-77.66,0-.95-.37-2.02.49-2.84.11.12.21.24.32.35.68,1.42.45,2.95.45,4.43.02,24.32,0,48.65.01,72.97q0,4.64,4.64,3.87c7.31-1.22,14.61-2.5,21.92-3.74,4.29-.73,4.34-.79,4.34-5.06,0-23.41,0-46.81.01-70.22,0-1.4-.18-2.84.41-4.19.17-.33.44-.45.8-.38.61.83.3,1.78.3,2.66.02,25.06.01,50.13.03,75.19,0,.89-.29,1.83.28,2.67-.48,1.2-1.62.92-2.53,1.1-2.81.57-5.62,1.2-8.49,1.36Z"/>
      <path class="cls-27" d="m200.09,172.89c.17,0,.33,0,.5,0,1.15,1.18.73,2.68.74,4.04.02,34.56.02,69.13.02,103.69,0,37.97,0,75.93,0,113.9,0,1.81.17,3.65-.73,5.34-.17,0-.34,0-.51,0-.04-.83-.1-1.66-.1-2.49,0-74,0-147.99,0-221.99,0-.83.06-1.66.1-2.49Z"/>
      <path class="cls-7" d="m412.99,183.4c-.96-.15-1.26.26-.99,1.16-3.53.75-7.06.1-10.58-.06-5.37-.24-10.74-.68-16.12-.81-4.47-.11-8.92-.57-13.38-.72-1-.26-1.38-1.73-2.7-1.37-9.27-.22-18.51-.94-27.76-1.37-5.21-.24-10.41-.79-15.64-.66-.65-.05-1.27-.15-1.71-.69-.04-.17-.14-.3-.3-.37.89-1.22,2.15-.53,3.18-.48,9.05.41,18.1.91,27.15,1.4,17.69.95,35.37,1.92,53.06,2.87,1.25.07,2.5.06,3.75.11.82.03,1.73-.11,2.03.99Z"/>
      <path class="cls-44" d="m498.02,187.83c.79-1.82,2.35-.83,3.47-.78,12.04.56,24.07,1.24,36.1,1.88,6.06.32,12.12.63,18.18.95.5.03,1.01,0,1.34.49-.08.08-.16.16-.25.24-.48.13-.98-.08-1.41.06.93.05,2.06,0,.5,1.22-3.64.51-7.24-.29-10.87-.33-3.95-.05-7.91-.41-11.88-.51-1.07-.03-2.13-.28-3.15-.64-.21-.11-.47-.17-.59-.37-.41-.74-.63-.81-.67.15-.01.27-.31.32-.51.43-4.81.29-9.6-.4-14.39-.61-4.96-.22-9.95-.08-14.89-.84-.8-.1-.48-1.01-.97-1.34Z"/>
      <path class="cls-43" d="m492.12,349.91c-.87-.72-.47-1.71-.47-2.57-.02-24.98-.01-49.95-.03-74.93,0-1.05.35-2.18-.44-3.13-.59-.54-.33-1.23-.33-1.88.04-26.29.05-52.58,0-78.87-.03-.32,0-.63.07-.94.32-.49.73-.51,1.2-.22.04.74.13,1.49.13,2.23,0,52.6,0,105.21,0,157.81,0,.83-.08,1.66-.12,2.49Z"/>
      <path class="cls-2" d="m498.02,187.83c.57.18.51.72.65,1.14.84.98.72,2.18.72,3.33,0,24.78.05,49.55,0,74.33-.1.98-.09,1.97,0,2.95.05,24.71.02,49.41.01,74.12,0,1.23.18,2.52-.71,3.59-.19.53.08,1.23-.6,1.58-.05-.74-.14-1.49-.14-2.23,0-52.35,0-104.71,0-157.06,0-.58.05-1.16.08-1.74Z"/>
      <path class="cls-44" d="m557.09,190.37c.72.78.42,1.74.42,2.62.01,47.77.01,95.53,0,143.3,0,.89.24,1.84-.37,2.66,0,0-.14-.19-.14-.19-.54-1.42-.66-2.89-.66-4.41.01-46.48.01-92.96,0-139.44,0-1.51.14-2.98.62-4.42l.13-.13Z"/>
      <path class="cls-4" d="m492.11,187.38c-.35,0-.69.01-1.04.02-2.53.56-5.14.41-7.63.1-3.82-.47-7.63-.2-11.43-.5-1.29-.44-2.62-.39-3.95-.4-3.15-.03-6.33.27-9.4-.8-1.09-.38-2.08.47-3.18.3-4.52-.68-9.12-.19-13.65-.89-1.57-.24-3.16-.18-4.74-.08-3.76.23-7.45-.69-11.19-.56-.68.02-1.31-.19-1.84-.65-1.34,0-2.69-.02-4.03-.03.15-1.29,1.16-1,1.92-.96,11.53.59,23.05,1.2,34.58,1.82,6.88.37,13.77.76,20.65,1.1,4.4.22,8.8.38,13.2.57.72.03,1.57-.12,1.72.96Z"/>
      <path class="cls-24" d="m359.19,169.83c4.41,1.19,8.85,2.01,13.45,2.1,10.59.21,19.53-3.64,27.23-10.69.54-.49.91-1.21,1.73-1.34-.65,2.29-2.78,3.23-4.41,4.48-9.92,7.57-20.99,10.12-33.25,7.32-2.02-.46-4.02-.91-5.91-1.76.35-.37.75-.31,1.16-.11Z"/>
      <path class="cls-45" d="m312.6,104.42c-1.37-3.44-2.58-6.95-4.14-10.3-2.14-4.59-4.8-8.89-8.08-12.78-.19-.22-.2-.6-.29-.9,2.4,1.43,3.44,3.97,4.95,6.12,3.37,4.78,5.59,10.14,7.42,15.66.22.68.1,1.47.14,2.2Z"/>
      <path class="cls-48" d="m299.61,79.92c-2.28-2.16-4.55-4.33-6.85-6.46-3.11-2.89-6.78-5.03-10.2-7.51.2-.26.44-.3.72-.11,6.14,3.29,11.25,7.84,15.86,13,.25.28.32.72.47,1.09Z"/>
      <path class="cls-10" d="m359.19,169.83c-.39.04-.77.07-1.16.11-4.73-1.72-9.09-4.11-13.12-7.12-.7-.52-1.57-.93-1.85-1.89,2.04.43,3.24,2.17,4.89,3.21,3.58,2.26,7.45,3.87,11.23,5.69Z"/>
      <path class="cls-25" d="m283.27,65.84c-.24.04-.48.07-.71.11-1.65-.99-3.59-1.51-4.92-3.02,2.19.37,4,1.48,5.64,2.91Z"/>
      <path class="cls-25" d="m272.4,61c.28-.04.56-.09.83-.13,1.69.19,3.19.77,4.37,2.05-2.04.2-3.4-1.47-5.2-1.92Z"/>
      <path class="cls-50" d="m304.6,382.88c1.79-.88,3.69-1.14,5.67-.97-1.84.64-3.71,1.03-5.67.97Z"/>
      <path class="cls-50" d="m296.1,384.39c1.78-.9,3.68-1.14,5.64-.99-1.82.67-3.7,1-5.64.99Z"/>
      <path class="cls-50" d="m312.6,280.41c-6.8.47-13.59.97-20.4,1.39-9.46.59-18.92,1.15-28.39,1.62-1.8.09-2.2.81-2.2,2.45.03,33.37.03,66.74,0,100.11,0,1.7.33,2.58,2.27,2,.69-.21,1.48-.07,2.23-.09-1.41.81-2.94,1.02-4.53.97-1.16-.78-.68-1.97-.68-2.98-.02-33.04.2-66.08-.08-99.12-.31-35.53-.05-71.06-.17-106.59,0-1.13-.59-2.53.85-3.35l.19.16c1.08,1.39.72,3.04.72,4.58.02,31.31.02,62.62.02,93.93,0,5.33.25,5.46,5.5,4.95,7.04-.68,14.11-.92,21.16-1.32,6.72-.38,13.43-1.1,20.18-1.1,1.98,0,3.13-.91,3.03-3.06-.04-.91,0-1.83,0-2.75,0-29.39,0-58.79.02-88.18,0-1.55-.35-3.19.72-4.58.9.58.55,1.5.55,2.28.02,31.57.02,63.14,0,94.7,0,1.19.37,2.55-1.39,3.07-.44.13.38.54.38.92Z"/>
      <path class="cls-20" d="m201.72,287.91c0,36.65-.02,73.29-.03,109.94-.7.49,1.12,2.34-1.09,2.01,0-75.66-.01-151.32-.02-226.98.33-.15.65-.3.98-.45,1.24.58.42,1.28.12,1.95,0,36.66,0,73.31.01,109.97-.16,1.18.55,2.36.02,3.55Z"/>
      <path class="cls-8" d="m261.51,176.81c-.66.99-.36,2.11-.36,3.16-.02,32.73-.01,65.45-.01,98.18,0,35.76,0,71.53,0,107.29,0,1.16-.16,2.34.45,3.42-.04.55-.21,1.03-.88.9-.51-.1-.5-.53-.49-.98.82-34.21.11-68.42.43-102.63.01-1.63-1.54-3.04-.48-4.71.39-.79.21-1.64.21-2.46.01-33.22.01-66.44,0-99.66,0-.82.18-1.67-.21-2.46-.16-.16-.32-.32-.48-.48-.37-.59.19-.7.48-.95.87.06,1.49.35,1.34,1.39Z"/>
      <path class="cls-27" d="m260.16,175.42c-.16.32-.32.63-.48.95-.39.04-.78.07-1.18.11-13.51-.64-27.01-1.28-40.52-1.92-4.72-.22-9.45-.44-14.17-.66-.76-.04-1.5-.02-2.12.5-.18-.64.52-1.34-.12-1.95,10.42.81,20.86,1,31.29,1.56,9.1.49,18.19,1.18,27.3,1.42Z"/>
      <path class="cls-27" d="m260.16,176.85c.7.79.42,1.75.42,2.63.01,33.1.01,66.21,0,99.31,0,.89.26,1.84-.42,2.64,0-34.86,0-69.72,0-104.58Z"/>
      <path class="cls-50" d="m310.56,380.34c2.15-.47,2.6-1.79,2.6-3.93-.08-30.96-.05-61.92-.06-92.87,0-1.06.22-2.18-.5-3.14,1.74.33.98,1.73.99,2.63.05,20.91.03,41.81.03,62.72,0,10.58,0,21.16,0,31.73,0,1.05.28,2.22-.93,2.89-.7-.01-1.41-.03-2.11-.04Z"/>
      <path class="cls-50" d="m295.62,382.86c3.77-1.01,7.59-1.74,11.49-1.98-3.75,1.16-7.56,1.93-11.49,1.98Z"/>
      <path class="cls-50" d="m287.1,384.35c2.75-.99,5.6-1.4,8.51-1.5-2.75,1-5.58,1.56-8.51,1.5Z"/>
      <path class="cls-9" d="m324.67,279.96c0,32.45,0,64.9,0,97.35-.12.46.07,1.03-.53,1.34-.93-.56-.51-1.49-.51-2.23-.02-65.07-.02-130.14,0-195.21,0-.79-.3-1.69.49-2.33.48.01.97.03,1.45.04.26.73-.25,1.4-.14,2.13-.02,29.8,0,59.6,0,89.39,0,2,.02,3.99-.02,5.99.01.4-.01.81,0,1.22.93,1.13.89,1.97-.71,2.32Z"/>
      <path class="cls-49" d="m371.22,277.04c0,30.75-.02,61.49-.03,92.24-.14.46.07,1.21-.48,1.3-.72.1-.56-.62-.57-1.08-.02-.66.01-1.33.01-2,0-29.28,0-58.55-.02-87.83,0-.92.48-2.02-.58-2.75,0,0,.03.02.03.02-.57-.43-.82-.96-.53-1.66.43-1.12.35-2.3.35-3.46,0-29.41.01-58.81,0-88.22,0-.93-.48-2.06.76-2.66,1.13,0,1.31.63,1.04,1.56.84.98.71,2.19.71,3.34,0,29.41.06,58.82-.02,88.22-.13,1.01.18,2.13-.67,2.99Z"/>
      <path class="cls-13" d="m371.21,274.74c4.57.56,9.08-.43,13.63-.51,4.22-.07,8.42-.54,12.64-.79,4.05-.24,8.11-.44,12.16-.61.97-.04,1.79-.27,2.4-1.06,0,1.08,0,2.15,0,3.23-.83-.81-1.87-.57-2.84-.51-12.34.78-24.67,1.57-37.01,2.36-.33.02-.65.12-.98.19,0-.77,0-1.53,0-2.3Z"/>
      <path class="cls-21" d="m430.48,184.95c-.8-.02-1.59-.04-2.39-.06-1.28-.69-2.78.23-4.05-.55.02-.14.03-.28.03-.43,8.93.34,17.87.52,26.79,1.06,6.19.38,12.37.95,18.57.93.92,0,1.83,0,2.65.49.17.27.13.5-.1.71-.47.32-1.01.4-1.56.44-.83.03-1.65-.02-2.47-.19-2.04-.52-4.11-.18-6.17-.26-.98,0-1.98.06-2.9-.4-.1-.1-.2-.2-.3-.3-.36-.35-.79-.45-.9.13-.13.73-.1,1.49-.1,2.24,0,26.47,0,52.95,0,79.42,0,1.08-.06,2.16-.09,3.24-2.27.59-4.63-.21-6.9.43-9.82.69-19.64,1.38-29.46,2.06.39-.7-.04-1.39,0-2.09,7.82.19,15.59-.88,23.39-1.2,3.57-.15,7.13-.49,10.69-.65,1.3-.06,1.97-.37,1.96-1.85-.06-27.2-.09-54.41-.12-81.61-2.29-.98-4.74.08-7.05-.59-.8-.01-1.61-.03-2.41-.04-2.67-.68-5.42.13-8.09-.46-.47,0-.94-.02-1.41-.03-2.5-.74-5.11.14-7.62-.46Z"/>
      <path class="cls-31" d="m450.59,271.86c2.25-.98,4.6-.3,6.9-.43.03,2.33.09,4.65.09,6.98,0,24.7-.02,49.4.04,74.11,0,2.15-.34,3.22-2.81,3.59-9.54,1.44-19.05,3.16-28.56,4.78-1.71.29-3.4.64-5.11.96-.01-.34-.02-.67-.03-1,5.74-.29,11.3-1.74,16.96-2.61,5.58-.86,11.11-1.98,16.7-2.8,1.76-.26,2.4-.81,2.4-2.63-.05-26.29-.05-52.58,0-78.86,0-1.83-.67-2.31-2.34-2.15-1.4.13-2.82.05-4.24.07Z"/>
      <path class="cls-4" d="m424.04,184.34c1.33.32,2.81-.45,4.05.55-2.32,0-4.64.01-6.96.02.8-1.05,1.95-.33,2.91-.57Z"/>
      <path class="cls-15" d="m491.13,187.82c.77.76.48,1.72.48,2.61.01,25.06,0,50.11.03,75.17,0,1.27-.27,2.46-.48,3.67-.06.06-.11.12-.17.19-.86.77-1.96.97-3.03,1.02-6.98.33-13.94.88-20.92,1.15-.91.04-1.84.02-2.68-.45-.11-.11-.22-.22-.33-.33-1.66-1.27-3.83.35-5.48-.97.12-.11.23-.22.35-.33,1.63-.74,3.37-.89,5.12-.94,7.06-.18,14.09-.91,21.16-1.11,5.1-.15,5.1-.31,5.1-5.32,0-23.12,0-46.25,0-69.37,0-1.41-.14-2.83.27-4.22.12-.31.31-.57.57-.77Z"/>
      <path class="cls-15" d="m458.57,269.88c-.79-.75-.47-1.72-.47-2.6-.02-26.1-.02-52.2,0-78.3,0-.87-.33-1.85.48-2.59,0,0,.09.1.09.1.85.98.72,2.18.72,3.33.02,25.55.02,51.1,0,76.66,0,1.15.13,2.36-.73,3.33l-.09.08Z"/>
      <path class="cls-15" d="m458.59,271.36c1.74-1.04,3.65-.21,5.46-.51,0,0,.08.1.08.1-1.65,1.94-3.55,1.29-5.46.53l-.08-.11Z"/>
      <path class="cls-17" d="m528.49,342.28c0-24.92,0-49.85,0-74.77-.9-.83-.59-1.94-.7-2.96-.05-23.42-.02-46.84-.02-70.26,0-1.3-.23-2.68.74-3.81.07-.39.02-1,.24-1.13.43-.26.66.25.87.59.03.16.06.32.09.48.16,16.3,0,32.6.08,48.9.04,8.9-.21,17.8.15,26.69.01.34-.12.65-.29.94,0,0,0,0,0,0-.98.53-.6,1.47-.6,2.23,0,24.51.03,49.01.04,73.52,0,.21-.07.41-.12.65-.6-.24-.29-.76-.47-1.09Z"/>
      <path class="cls-38" d="m556.5,337.77c-.01-24.07-.03-48.14-.04-72.2-.34-.58-.58-1.19-.6-1.88-.15-.82-.11-1.66-.11-2.49,0-21.79,0-43.58.01-65.37,0-1.46-.32-3.02.73-4.32-.27-1.02-1.43-.3-1.98-1.01.87,0,1.66,0,2.44,0,.03.58.08,1.16.08,1.74,0,48.43,0,96.85,0,145.28,0,.42-.03.83-.04,1.25-.46-.18-.42-.62-.5-.99Z"/>
      <path class="cls-18" d="m370.16,180.93c-.58,1.21.02,2.43.02,3.65-.05,29.32-.03,58.63-.05,87.95,0,1.19.44,2.56-.95,3.39-1.29.62-2.72.87-4.08.9-9.79.22-19.53,1.28-29.32,1.61-3.39.11-6.76.78-10.16.21-.33-.05-.66-.07-.94-.27-.01-.33-.02-.67-.03-1,4.98-1.19,10.09-.84,15.13-1.24,7.13-.56,14.28-.77,21.41-1.4,1.25-.11,2.49-.14,3.74-.15,3.73-.04,3.85-.17,3.89-4,0-.25,0-.5,0-.75,0-27.47,0-54.95,0-82.42,0-.58.01-1.17-.01-1.75-.1-2.59-.36-2.85-2.88-2.96-11.46-.49-22.92-1.19-34.39-1.6-2.27-.08-4.67.01-6.82-1.09.29-.36.57-.73.86-1.09,9.25.21,18.49.78,27.72,1.43,5.61.4,11.25.41,16.88.59Z"/>
      <path class="cls-39" d="m472.08,186.84c0-.15,0-.3,0-.44,5.54-.36,11.03.66,16.57.54.8-.02,1.61.3,2.41.46,0,.15.02.29.06.43-.06.07-.11.14-.16.21-1.08.78-2.26.52-3.44.37-2.43-.6-4.9-.22-7.36-.28-1.03.04-2.06-.02-3.07-.2-1.59-.76-3.56.29-5.02-1.07Z"/>
      <path class="cls-47" d="m498.67,266.8c.75.73,1.7.57,2.6.52,8.45-.49,16.9-1,25.34-1.49.68-.04,1.32-.12,1.87-.55,0,.74,0,1.49.01,2.23-4.81-.52-9.57.39-14.36.51-4.54.12-9.08.58-13.62.87-.67.04-1.32.08-1.84.57,0-.89,0-1.78,0-2.66Z"/>
      <path class="cls-29" d="m324.68,278.37c8.52.05,16.98-.85,25.46-1.45,3.29-.23,6.6-.19,9.9-.43,3.04-.22,6.08-.58,9.14-.58.13.34.26.68.4,1.02-13.98.85-27.97,1.7-41.95,2.57-.99.06-1.97.3-2.95.45.63-.53,1.28-1.05,0-1.58Z"/>
      <path class="cls-4" d="m439.5,185.44c2.7.13,5.44-.57,8.09.46-2.7-.1-5.42.27-8.09-.46Z"/>
      <path class="cls-4" d="m430.48,184.95c2.54.13,5.13-.59,7.62.46-2.54-.09-5.11.27-7.62-.46Z"/>
      <path class="cls-4" d="m450,185.94c2.35.23,4.8-.78,7.05.59-2.33-.42-4.75.21-7.05-.59Z"/>
      <path class="cls-4" d="m477.07,187.36c-2.2-.04-4.43.31-6.58-.41.53-.03,1.06-.07,1.6-.11,1.65.3,3.41-.43,4.99.52Z"/>
      <path class="cls-4" d="m468.08,186.89c-2.22-.03-4.46.27-6.64-.43,2.21.09,4.48-.56,6.64.43Z"/>
      <path class="cls-47" d="m529.61,189.93c-.04.41-.12.83-.12,1.24,0,24.07,0,48.13-.03,72.2,0,1.39.23,2.2,1.9,2.07,8.37-.64,16.78-.75,25.13-1.69-.01.6-.02,1.21-.03,1.82-6.54.34-13.07.69-19.61,1.03-2.4.12-4.8.24-7.2.35-.51-1.33-.64-2.71-.64-4.14.02-23.37.01-46.74.04-70.11,0-.92-.48-2.02.57-2.76Z"/>
      <path class="cls-4" d="m487.56,187.84c-2.52-.05-5.07.32-7.56-.4,2.52.13,5.08-.56,7.56.4Z"/>
    </g>
    <g>
      <path class="cls-28" d="m.15,41.94c-.02-1.16.95-.94,1.61-1.12,23.29-6.23,46.58-12.45,69.86-18.69C98.51,14.93,125.4,7.71,152.29.51c3.41-.91,3.42-.9,3.42,2.68,0,63.32,0,126.63,0,189.95,0,83.89,0,167.79,0,251.68,0,3.75-.06,3.77-3.33,2.9-23.2-6.2-46.4-12.37-69.59-18.57-17.18-4.59-34.35-9.2-51.53-13.8-9.39-2.51-18.8-4.99-28.18-7.55-1.03-.28-2.43-.04-2.92-1.47.44-.87.23-1.8.23-2.7.01-119.66.01-239.33,0-358.99,0-.9.22-1.83-.23-2.7Z"/>
      <path class="cls-14" d="m.15,41.94c.75.57.43,1.37.43,2.09,0,119.42,0,238.84-.03,358.26,0,1.33.63,2.79-.39,4.04-.05-.99-.15-1.99-.15-2.98,0-119.14,0-238.28,0-357.42,0-1.33.09-2.66.14-3.99Z"/>
      <path class="cls-3" d="m46.09,279.37c-1.08.83-.55,2-.55,3-.03,43.74-.03,87.48-.03,131.22q0,3.52-3.32,2.64c-12.96-3.42-25.9-6.88-38.88-10.22-1.68-.43-2.38-1.05-2.28-2.83.14-2.49.04-5,.04-7.5,0-116.39,0-232.78.01-349.18,0-3.91-.7-3.55,3.72-4.72,28.46-7.53,56.91-15.09,85.37-22.62,20.58-5.44,41.17-10.82,61.74-16.29,1.64-.44,2.16-.02,2.07,1.57-.04.66,0,1.33,0,2,0,145.22,0,290.44-.01,435.66,0,1.22.33,2.51-.43,3.65-1.99.58-3.74-.47-5.54-.94-16.15-4.17-32.24-8.6-48.4-12.74-4.38-1.12-4.68-1.5-4.68-6.19,0-46.2,0-92.4-.02-138.59,0-1.24.53-2.76-1.14-3.49-5.98-1.11-12.05-1.08-18.07-1.6-9.16-.8-18.33-1.49-27.51-2.1-.76-.05-1.47-.23-2.07-.74Z"/>
      <path class="cls-37" d="m46.09,279.37c5.26-.14,10.46.64,15.68,1.01,10.8.76,21.59,1.65,32.38,2.48,1.07.33,1.23,1.11,1.22,2.12-.05,3.33-.02,6.66-.02,9.98,0,43.84,0,87.69.01,131.53,0,1.31-.18,2.63.34,3.94.31.77-.14,1.29-1.08.94-.17-.05-.33-.1-.5-.15-1.09-1.3-.7-2.86-.71-4.32-.02-45.59-.02-91.18-.02-136.78,0-1.25.09-2.5-.12-3.73-.16-.41-.38-.77-.75-1.02-2.09-.65-4.23-.24-6.35-.23-8.23-.38-16.44-1.05-24.65-1.72-3.32-.27-6.63-.62-9.96-.72-2.73-.08-3.03.3-3.13,2.95-.03.92-.01,1.83-.01,2.75,0,41.57,0,83.15,0,124.72,0,1.33.08,2.67-.13,3.99-.26,1.15-.9,1.72-2.12,1.34-.66-1.42-.07-2.88-.07-4.31-.05-44.18-.04-88.36-.04-132.54,0-.75.03-1.5.04-2.25Z"/>
      <path class="cls-26" d="m154.12,445.89c.71-.78.43-1.75.43-2.63.01-146.05,0-292.1.06-438.16,0-1.4-.89-2.82-.03-4.43.76.74.51,1.51.51,2.18,0,147.39,0,294.77-.04,442.16,0,.71,1.06,2.85-1.44,1.84-.34-.59.19-.72.51-.95Z"/>
      <path class="cls-35" d="m154.12,445.89c-.17.32-.34.63-.51.95-5.77-1.46-11.55-2.86-17.31-4.38-10.72-2.83-21.43-5.74-32.15-8.6-3.17-.85-6.36-1.65-9.54-2.47.52-.11.99-.26.79-.96-.54-1.88-.25-3.8-.25-5.7-.02-46.17-.01-92.33-.02-138.5,0-1.21.33-2.53-.99-3.35,1.1-.24,1.55.31,1.58,1.33.02.75.01,1.5.01,2.25,0,46.81.03,93.62-.07,140.42,0,2.81.89,3.86,3.55,4.54,18.12,4.68,36.2,9.54,54.29,14.35.2.04.4.09.6.13Z"/>
      <path class="cls-35" d="m93.08,284.82c.2.19.4.39.6.58.3.81.16,1.65.16,2.48,0,46.55,0,93.1,0,139.65,0,1.14.24,2.36-.7,3.31-15.66-4.13-31.32-8.25-46.98-12.38.79.03,1.42-.16,1.48-1.11,1.11-.41,2.14.09,3.16.36,12.62,3.38,25.28,6.62,37.89,10.05,3.4.93,3.63.76,3.63-2.91,0-14.4,0-28.8,0-43.21,0-30.39,0-60.77,0-91.16,0-1.84-.03-3.66-.84-5.36.38-.85,1.01-.45,1.59-.32Z"/>
      <path class="cls-34" d="m93.14,430.84c.45-1.35.54-2.74.54-4.16-.01-47.09,0-94.18,0-141.28.79.96.41,2.09.41,3.13.03,47.57.03,95.13.03,142.7-.41.07-.75,0-.98-.39Z"/>
      <path class="cls-51" d="m108.1,150.91c-.49.07-.99.13-1.48.2-1.02,0-2.06.23-3.07-.21.43-1.49,2.34-.69,2.65-2.07.34-3.08.12-6.16.13-9.24.03-9.41.03-18.81,0-28.22,0-2.86-.21-3.07-3-2.66-6.42.95-12.85,1.82-19.27,2.82-1.81.28-3.59.73-5.44.63-1.76-.28-3.45.36-5.18.44-1.86.08-2.64.99-2.63,2.85.03,4.4.01,8.79,0,13.19,0,6.97.05,13.94-.03,20.91-.02,2.04.29,3.44,2.77,3.24.64-.05,1.28.19,1.62.97-1.3.91-2.84-.11-4.04.7h.03c-3.71.97-7.53,1.05-11.31,1.42-6.74.66-13.49,1.2-20.23,1.91-1.85.2-3.8.55-5.61-.41-.28-7.15-.07-14.3-.12-21.46-.04-5.91.05-11.82-.04-17.72-.03-2.02.79-2.85,2.73-3.01,2.56-.21,5.09-.74,7.61-1.26,6.62-1.45,13.38-2.04,20.04-3.23,1.29-.23,2.65-.23,3.68-1.24.71-.87.5-1.91.5-2.89.01-10.33.01-20.66,0-30.99,0-3.4-.22-3.55-3.61-2.89-9.13,1.79-18.21,3.85-27.37,5.49-.86.16-2.19,1.08-2.46-.46-.24-1.4,1.28-1.54,2.29-1.76,7.38-1.6,14.8-2.99,22.19-4.55,15.08-3.19,30.18-6.24,45.28-9.31,4.48-.91,4.62-1.97,4.62,3.72-.03,27.07-.02,54.14,0,81.22,0,1.45.02,2.85-1.26,3.85Z"/>
      <path class="cls-23" d="m108.1,150.91c1.18-1.77.98-3.76.98-5.74,0-26.81-.02-53.61.04-80.42,0-2.26-.29-3.02-2.88-2.47-19.25,4.07-38.54,7.97-57.82,11.92-3.66.75-7.33,1.46-10.99,2.2-.93.19-2.06.11-2.3,1.6,10.53-2.13,20.98-4.2,31.42-6.37,1.87-.39,2.65.1,2.65,2.04-.03,11.74-.01,23.48-.02,35.21,0,.56.12,1.2-.58,1.5-1.01-1.13-.71-2.52-.72-3.82-.03-9.58-.01-19.16-.02-28.73,0-.75-.02-1.5-.02-2.25,0-1.8-.88-2.32-2.56-1.98-3.26.66-6.54,1.28-9.8,1.96-5.3,1.11-10.6,2.18-15.92,3.19-3,.57-3.15.8-3.16,3.75-.02,9.66-.02,19.32,0,28.98,0,2.97.18,3.05,3.21,2.64,1.68-.23,3.42-1.03,5.03.26-2.56,1.05-5.31,1.27-8,1.44-1.86.11-2.43.62-2.42,2.44.07,12.99.06,25.98.08,38.98.1.27.04.5-.19.68-.71-.78-.41-1.75-.41-2.63-.02-12.15-.42-24.32.09-36.45.55-13.14.17-26.27.35-39.4.03-2.41.94-3.55,3.35-4.04,23.21-4.71,46.41-9.49,69.6-14.32,2.49-.52,2.61.77,2.61,2.58-.02,16.06,0,32.13,0,48.19,0,11.99.01,23.97-.02,35.96,0,1.22.48,2.83-1.57,3.07Z"/>
      <path class="cls-11" d="m107.02,149.82c-.71,1.2-1.95.36-2.89.79.75.57,1.76-.15,2.49.49-7.23,1.15-14.54,1.5-21.82,2.24-4.55.46-9.11.74-13.67,1.11.91-1.22,2.4-.16,3.45-.88q-4.46-.23-4.46-4.86c0-11.12.05-22.24-.04-33.37-.02-2.34.84-3.39,3.11-3.44,1.81-.04,3.56-.87,5.41-.46-.61,1.62-2.17,1.27-3.37,1.52-3.13.66-3.34.78-3.35,3.84-.02,10.74-.02,21.49,0,32.23,0,2.85.43,3.25,3.2,2.94,9.43-1.03,18.91-1.62,28.33-2.73,1.23-.15,2.5-.33,3.59.56Z"/>
      <path class="cls-11" d="m34.1,157.95c.06-.23.13-.45.19-.68,4,.64,7.94-.32,11.9-.57,6.44-.39,12.85-1.25,19.29-1.75,1.9-.15,3.75-.82,5.68-.51-.56.7-1.32.94-2.18,1.02-10.61.97-21.21,1.98-31.83,2.92-1.01.09-2.16.57-3.05-.43Z"/>
      <path class="cls-3" d="m91.58,284.95c1.05.31,1.79.82,1.56,2.1-.07.4-.01.83-.01,1.25,0,45.98,0,91.96,0,137.94,0,3.48,0,3.5-3.38,2.62-13.36-3.52-26.71-7.04-40.06-10.59-.71-.19-1.36-.59-2.04-.9,0-44.45,0-88.89-.07-133.34,0-2.15.75-2.42,2.61-2.27,11.2.93,22.4,1.76,33.6,2.61.91.07,1.82.05,2.73.08,1.65.6,3.44-.28,5.07.51Z"/>
      <path class="cls-34" d="m91.58,284.95c-1.69-.14-3.42.05-5.07-.51,2.19.08,4.43-.54,6.57.38-.5.04-1,.09-1.5.13Z"/>
      <path class="cls-3" d="m107.02,149.82c-11.02,1.01-22.05,1.98-33.06,3.09-2.27.23-3.01-.26-2.98-2.68.13-11.49.12-22.98,0-34.47-.02-2.35.74-3.25,3.04-3.4,1.54-.1,3.15-.18,4.59-.9,8.8-1.27,17.6-2.5,26.39-3.82,1.6-.24,2.26.04,2.25,1.82-.05,13.05-.03,26.1-.04,39.15,0,.41-.13.82-.2,1.22Z"/>
      <path class="cls-3" d="m107.23,84.68c0,5.99-.05,11.99.03,17.98.02,1.61-.39,2.39-2.11,2.64-10.63,1.53-21.25,3.1-31.85,4.76-2,.31-2.63-.11-2.61-2.21.09-11.24.08-22.48,0-33.72-.01-2.02.59-2.94,2.68-3.35,10.21-1.98,20.39-4.13,30.58-6.2,3.16-.64,3.27-.54,3.27,2.6,0,5.83,0,11.66,0,17.48Z"/>
      <path class="cls-3" d="m68.71,132.98c0,5.74-.06,11.49.04,17.23.03,1.98-.59,2.81-2.63,2.98-9.37.8-18.73,1.71-28.08,2.63-1.72.17-2.36-.36-2.35-2.17.07-11.16.07-22.31,0-33.47-.01-1.84.7-2.45,2.39-2.69,9.39-1.33,18.78-2.71,28.16-4.15,1.85-.28,2.55.17,2.52,2.14-.09,5.83-.03,11.65-.03,17.48Z"/>
      <path class="cls-3" d="m44.64,114.41c-2.36-.24-4.61.46-6.9.83-1.4.23-2.13.09-2.12-1.66.07-10.99.05-21.98.02-32.97,0-1.28.35-1.92,1.73-2.19,9.63-1.87,19.25-3.78,28.86-5.79,2.28-.48,2.28.72,2.28,2.31-.02,10.99-.01,21.98,0,32.97,0,.83.06,1.66.09,2.49-4.17,1.48-8.6,1.51-12.9,2.34-3.66.71-7.37,1.12-11.05,1.67Z"/>
      <path class="cls-1" d="m82.19,355.45c.02-2.72,1.77-4.67,4.14-4.63,3.02.05,5.79,3.08,5.81,6.34.01,2.8-1.74,4.81-4.23,4.83-3.21.03-5.75-2.88-5.72-6.54Z"/>
      <path class="cls-12" d="m89.04,354.41c.12.22.25.42.34.65.61,1.51,1.07,3.22-.67,4.1-1.77.9-3.27.05-4.16-1.73-.37-1.35-.42-2.66.88-3.55,1.31-.9,2.5-.29,3.61.52Z"/>
      <path class="cls-46" d="m89.04,354.41c-3.54-1.2-4.24-.73-4.49,3.03-.84-1.62-.68-3.15.91-4.09,1.39-.82,2.67-.27,3.58,1.06Z"/>
    </g>
  </g>
</svg>