<svg width="65" height="65" viewBox="0 0 65 65" fill="none" xmlns="http://www.w3.org/2000/svg">
<path d="M35.2109 23.0208H24.3776C19.1424 23.0208 14.8984 18.7769 14.8984 13.5417C14.8984 8.30646 19.1424 4.0625 24.3776 4.0625H35.2109V23.0208Z" fill="#E64A19"/>
<path d="M33.8568 41.9798H24.3776C19.1424 41.9798 14.8984 37.7359 14.8984 32.5007C14.8984 27.2654 19.1424 23.0215 24.3776 23.0215H33.8568V41.9798Z" fill="#7C4DFF"/>
<path d="M24.3776 60.9368C19.1424 60.9368 14.8984 56.6929 14.8984 51.4577C14.8984 46.2225 19.1424 41.9785 24.3776 41.9785H33.8568V51.4577C33.8568 56.6929 29.6128 60.9368 24.3776 60.9368Z" fill="#66BB6A"/>
<path d="M43.3307 23.0208H33.8516V4.0625H43.3307C48.5659 4.0625 52.8099 8.30646 52.8099 13.5417C52.8099 18.7769 48.5659 23.0208 43.3307 23.0208Z" fill="#FF7043"/>
<path d="M43.3307 41.9798C48.5659 41.9798 52.8099 37.7358 52.8099 32.5007C52.8099 27.2655 48.5659 23.0215 43.3307 23.0215C38.0955 23.0215 33.8516 27.2655 33.8516 32.5007C33.8516 37.7358 38.0955 41.9798 43.3307 41.9798Z" fill="#29B6F6"/>
</svg>
