<svg width="100" height="100" viewBox="0 0 100 100" fill="none" xmlns="http://www.w3.org/2000/svg">
<path d="M39.5318 65.6256C39.5318 67.3506 38.1339 68.7506 36.4068 68.7506C34.6797 68.7506 33.2818 67.3506 33.2818 65.6256V36.459C33.2818 35.0986 34.163 33.8944 35.4589 33.4798C36.7609 33.0673 38.1714 33.5423 38.9568 34.6527L73.9088 84.0361C84.6213 76.4777 91.6693 64.0319 91.6693 50.0006C91.6693 27.084 72.9193 8.33398 50.0026 8.33398C27.0859 8.33398 8.33594 27.084 8.33594 50.0006C8.33594 72.9173 27.0859 91.6673 50.0026 91.6673C56.6526 91.6673 62.9318 90.0486 68.5234 87.2465L39.5318 46.284V65.6256ZM60.3651 34.3757C60.3651 32.6507 61.763 31.2507 63.4901 31.2507C65.2172 31.2507 66.6151 32.6507 66.6151 34.3757V63.209L60.3651 54.4027V34.3757Z" fill="#212121"/>
</svg>
