<svg width="65" height="65" viewBox="0 0 65 65" fill="none" xmlns="http://www.w3.org/2000/svg">
<path d="M48.75 8.125H16.25C11.7623 8.125 8.125 11.7623 8.125 16.25V48.75C8.125 53.2377 11.7623 56.875 16.25 56.875H48.75C53.2377 56.875 56.875 53.2377 56.875 48.75V16.25C56.875 11.7623 53.2377 8.125 48.75 8.125Z" fill="#50E6FF"/>
<path d="M48.7526 54.1673H16.2526C13.2612 54.1673 10.8359 51.742 10.8359 48.7506V16.2507C10.8359 13.2593 13.2612 10.834 16.2526 10.834H48.7526C51.744 10.834 54.1693 13.2593 54.1693 16.2507V48.7506C54.1693 51.742 51.744 54.1673 48.7526 54.1673Z" fill="#092347"/>
<path d="M19.6484 20.8166C19.6484 20.6731 19.7527 20.5526 19.8949 20.5363C20.4366 20.4767 21.9478 20.3535 25.1721 20.3535C30.0308 20.3535 33.4339 22.2805 33.4339 27.5536C33.4339 32.3095 30.196 35.1004 24.9717 35.1004C24.667 35.1004 24.3623 35.1004 23.325 35.1004V43.0656C23.325 43.1983 23.2167 43.3066 23.084 43.3066H19.8908C19.7581 43.3066 19.6498 43.1983 19.6498 43.0656V20.8166H19.6484ZM23.325 31.7515C23.325 31.7515 24.9324 31.7624 25.2953 31.7624C28.2785 31.7624 29.6354 29.9938 29.6354 27.624C29.6354 25.4046 28.3165 23.6739 25.5594 23.6739C24.4232 23.6739 23.3264 23.7389 23.3264 23.7389L23.325 31.7515Z" fill="white"/>
<path d="M35.4219 39.2302C35.4219 39.1015 35.5614 39.0216 35.6683 39.0921C36.3508 39.5484 37.7361 40.3298 39.8811 40.3298C41.2814 40.3298 42.167 39.7272 42.167 38.744C42.167 37.6553 40.6706 36.8658 39.4356 36.1955C38.2074 35.5292 35.449 34.4595 35.449 31.0145C35.449 27.9608 37.8892 26.1191 41.2123 26.1191C42.4852 26.1191 43.8895 26.3168 44.8374 26.6622C44.9931 26.719 45.0879 26.8707 45.0879 27.0373V30.1397C45.0879 30.267 44.9539 30.3496 44.8469 30.2791C44.2524 29.8905 42.9416 29.296 41.1378 29.296C39.636 29.296 38.9752 30.0273 38.9752 30.7721C38.9752 32.0775 40.714 32.6232 42.274 33.5386C44.7074 34.8928 45.8354 36.2158 45.8354 38.289C45.8354 41.6799 43.3072 43.5838 39.8825 43.5838C38.114 43.5838 36.451 43.1979 35.6006 42.6806C35.4828 42.6088 35.4232 42.4788 35.4232 42.3407L35.4219 39.2302Z" fill="white"/>
</svg>
