<svg width="65" height="65" viewBox="0 0 65 65" fill="none" xmlns="http://www.w3.org/2000/svg">
<path d="M32.4974 46.0423C15.0286 46.0423 1.35156 40.084 1.35156 32.5007C1.35156 24.9173 15.0286 18.959 32.4974 18.959C49.9661 18.959 63.6432 24.9173 63.6432 32.5007C63.6432 40.084 49.9661 46.0423 32.4974 46.0423ZM32.4974 21.6673C15.4349 21.6673 4.0599 27.2194 4.0599 32.5007C4.0599 37.7819 15.4349 43.334 32.4974 43.334C49.5599 43.334 60.9349 37.7819 60.9349 32.5007C60.9349 27.2194 49.5599 21.6673 32.4974 21.6673Z" fill="#80DEEA"/>
<path d="M20.4495 60.3967C19.0953 60.3967 18.012 60.1259 16.9286 59.4488C10.2932 55.6571 12.0536 40.8967 20.7203 25.7301C24.7828 18.6884 29.7932 12.7301 34.6682 8.93838C39.9495 4.87588 44.6891 3.65713 47.9391 5.55297C51.3245 7.4488 52.5432 12.1884 51.7307 18.8238C50.9182 25.053 48.2099 32.3655 44.1474 39.4071C40.0849 46.4488 35.0745 52.4071 30.1995 56.1988C26.6786 58.9071 23.2932 60.3967 20.4495 60.3967ZM44.5536 7.31338C42.387 7.31338 39.5432 8.53213 36.4286 10.9696C31.8245 14.6259 27.0849 20.3134 23.1578 27.0842C14.6266 41.8446 13.8141 54.5738 18.2828 57.1467C20.5849 58.5009 24.3766 57.2821 28.5745 54.0321C33.1786 50.3759 37.9182 44.6884 41.8453 37.9175C45.7724 31.1467 48.3453 24.2405 49.1578 18.4176C49.8349 13.0009 49.0224 9.20922 46.7203 7.85505C46.0432 7.58422 45.3661 7.31338 44.5536 7.31338Z" fill="#80DEEA"/>
<path d="M44.6876 60.3963C37.9168 60.3963 28.1668 52.1359 20.8543 39.2713C12.0522 24.1046 10.2918 9.34421 16.9272 5.55254C23.5626 1.76088 35.4793 10.563 44.2813 25.7296C48.3438 32.7713 51.0522 40.0838 51.8647 46.313C52.8126 52.9484 51.4584 57.5525 48.073 59.5838C46.9897 60.1255 45.9063 60.3963 44.6876 60.3963ZM18.2813 7.85463C13.8126 10.4275 14.6251 23.1567 23.1563 37.9171C31.6876 52.6775 42.2501 59.7192 46.7188 57.1463C49.0209 55.7921 49.8334 52.0005 49.1563 46.5838C48.3438 40.7609 45.7709 33.8546 41.8438 27.0838C33.3126 12.3234 22.7501 5.28171 18.2813 7.85463Z" fill="#80DEEA"/>
<path d="M32.5026 37.9173C35.4941 37.9173 37.9193 35.4922 37.9193 32.5007C37.9193 29.5091 35.4941 27.084 32.5026 27.084C29.5111 27.084 27.0859 29.5091 27.0859 32.5007C27.0859 35.4922 29.5111 37.9173 32.5026 37.9173Z" fill="#80DEEA"/>
</svg>
